<svg xmlns="http://www.w3.org/2000/svg" viewBox="253.84 664.92 70.07 70.07">   <path fill="#0fa0db" d="M323.909,725.729c0,5.113-4.146,9.26-9.261,9.26h-51.552c-5.114,0-9.261-4.146-9.261-9.26v-51.553      c0-5.114,4.146-9.261,9.261-9.261h51.552c5.115,0,9.261,4.146,9.261,9.261V725.729z"/>   <g>     <path fill-rule="evenodd" clip-rule="evenodd" fill="#FFFFFF" d="M269.813,711.312l0.14,0.409l0.233,0.349l0.292,0.339       l0.337,0.291l0.362,0.292l0.408,0.232l0.455,0.234l0.921,0.303l0.91,0.21l0.897,0.059l0.198-0.035l0.175-0.023l0.338-0.058       v-6.601h1.818h2.473h9.119h0.269h9.178h2.624h1.398v6.658l0.338,0.082l0.375,0.034h0.104h0.316l0.466-0.058l0.909-0.175       l0.921-0.351l0.467-0.198l0.396-0.269l0.372-0.279l0.339-0.292l0.292-0.339l0.232-0.349l0.141-0.408l0.081-0.396l2.007-18.716       l-1.772-16.49l-0.151-0.757l-0.199-0.688l-0.257-0.642l-0.339-0.596l-0.431-0.559l-0.548-0.491l-0.63-0.432l-0.745-0.372       l-0.97-0.433l-0.897-0.314l-0.104-0.035l-1.004-0.303l-1.003-0.292l-0.104-0.023l-1.937-0.384l-0.688-0.094l-1.341-0.198       l-2.029-0.198l-2.041-0.116l-3.767-0.141l-0.269-0.011l-4.068,0.151l-2.042,0.116l-2.006,0.198l-1.003,0.152l-1.025,0.14       l-1.004,0.175l-0.443,0.093l-0.559,0.14l-0.968,0.292l-0.805,0.245l-0.198,0.058l-1.004,0.35l-0.979,0.433l-0.745,0.372       l-0.63,0.432l-0.537,0.491l-0.432,0.559l-0.349,0.596l-0.28,0.642l-0.177,0.688l-0.139,0.757l-1.771,16.454l1.993,18.693       L269.813,711.312z M300.341,700.549l-0.127,0.373l-0.187,0.326l-0.245,0.291l-0.292,0.245l-0.35,0.187l-0.373,0.117       l-0.432,0.046l-0.397-0.046l-0.385-0.117l-0.337-0.187l-0.328-0.245l-0.244-0.291l-0.186-0.326l-0.094-0.373l-0.058-0.408       l0.058-0.408l0.094-0.362l0.186-0.361l0.244-0.292l0.328-0.245l0.337-0.185l0.385-0.105l0.397-0.059l0.432,0.059l0.373,0.105       l0.35,0.185l0.292,0.245l0.245,0.292l0.187,0.361l0.127,0.362l0.035,0.408L300.341,700.549z M305.146,700.549l-0.116,0.373       l-0.186,0.326l-0.245,0.291l-0.315,0.245l-0.314,0.187l-0.408,0.117l-0.386,0.046h-0.022l-0.397-0.046l-0.372-0.117       l-0.351-0.187l-0.291-0.245l-0.269-0.291l-0.197-0.326l-0.094-0.373l-0.036-0.408l0.036-0.408l0.094-0.362l0.197-0.361       l0.269-0.292l0.291-0.245l0.351-0.185l0.372-0.105l0.397-0.059h0.022l0.386,0.059l0.408,0.105l0.314,0.185l0.315,0.245       l0.245,0.292l0.186,0.361l0.116,0.362l0.047,0.408L305.146,700.549z M295.07,676.363l0.035-0.245l0.094-0.268l0.139-0.246       l0.198-0.245l0.176-0.187l0.222-0.162l0.233-0.106l0.21-0.034h1.959h2.624h2.215h0.537l0.384,0.058l0.233,0.083l0.245,0.128       l0.27,0.221l0.209,0.279l0.163,0.339l0.082,0.433l1.504,15.159l0.047,0.513l-0.081,0.385l-0.164,0.269l-0.209,0.187       l-0.245,0.105l-0.258,0.058l-0.43,0.023h-2.287h-2.215h-2.624h-1.877l-0.315-0.105l-0.292-0.186l-0.222-0.187l-0.175-0.211       l-0.256-0.466l-0.129-0.385V676.363z M284.855,673.437h4.303h4.315v29.351h-4.315h-4.303V673.437z M276.926,700.525       l-0.094,0.373l-0.197,0.35l-0.233,0.291l-0.304,0.245l-0.35,0.187l-0.361,0.117l-0.408,0.046h-0.012l-0.408-0.046l-0.386-0.117       l-0.349-0.187l-0.292-0.245l-0.232-0.291l-0.188-0.35l-0.116-0.373l-0.047-0.408l0.047-0.396l0.116-0.386l0.188-0.349       l0.232-0.293l0.292-0.256l0.349-0.175l0.386-0.14l0.408-0.023h0.012l0.408,0.023l0.361,0.14l0.35,0.175l0.304,0.256       l0.233,0.293l0.197,0.349l0.094,0.386l0.058,0.396L276.926,700.525z M281.695,700.525l-0.105,0.373l-0.198,0.35l-0.232,0.291       l-0.292,0.245l-0.326,0.187l-0.374,0.117l-0.396,0.046l-0.407-0.046l-0.374-0.117l-0.35-0.187l-0.291-0.245l-0.245-0.291       l-0.174-0.35l-0.117-0.373l-0.023-0.408l0.023-0.396l0.117-0.386l0.174-0.349l0.245-0.293l0.291-0.256l0.35-0.175l0.374-0.14       l0.407-0.023l0.396,0.023l0.374,0.14l0.326,0.175l0.292,0.256l0.232,0.293l0.198,0.349l0.105,0.386l0.046,0.396       L281.695,700.525z M271.468,691.173l1.645-14.705l0.105-0.536l0.175-0.409l0.222-0.302l0.244-0.176l0.211-0.141l0.151-0.058       l0.139-0.023h0.607h2.331h2.473h1.902l0.231,0.023l0.246,0.081l0.245,0.13l0.244,0.163l0.198,0.197l0.164,0.234l0.115,0.244       l0.047,0.303v15.568l-0.104,0.291l-0.105,0.245l-0.163,0.187l-0.151,0.187l-0.222,0.141l-0.244,0.104l-0.561,0.187h-1.843       h-2.473h-2.331H273.3l-0.351-0.023l-0.35-0.082l-0.35-0.15l-0.304-0.198l-0.233-0.269l-0.164-0.35l-0.104-0.409       L271.468,691.173z"/>     <rect x="280.727" y="712.268" fill-rule="evenodd" clip-rule="evenodd" fill="#FFFFFF" width="16.735" height="2.449"/>     <path fill-rule="evenodd" clip-rule="evenodd" fill="#FFFFFF" d="M307.327,726.623l-2.368-2.694h5.038l-2.565-2.787h-4.921       l-1.365-1.632h-2.576l0.979,1.632h-10.507H278.57l0.991-1.644l-2.508,0.012l-1.41,1.632h-5.411l-2.636,2.834h5.586l-2.31,2.647       h-5.458l-3.625,3.999l5.62-0.01l-1.47,1.69h5.854l1.027-1.69l16.221-0.024l16.198-0.023l1.118,1.866h6.064l-1.645-1.878h5.177       l-3.73-3.93H307.327z M289.042,726.623h-13.808l1.61-2.658l12.197-0.013l12.197-0.011l1.621,2.682H289.042z"/>     <rect x="277.182" y="708.104" fill-rule="evenodd" clip-rule="evenodd" fill="#FFFFFF" width="2.298" height="10.764"/>     <rect x="298.522" y="708.104" fill-rule="evenodd" clip-rule="evenodd" fill="#FFFFFF" width="2.297" height="10.764"/>   </g> </svg>